<svg xmlns="http://www.w3.org/2000/svg" width="1083.296" height="241.381" viewBox="56.227 0.567 1083.296 241.381"><path d="M600.796 10.867c-.752.076-1.162.12-1.6.167.278 1.28 1.282 1.902 2.079 2.803l-.912.693c.68.552 1.27 1.03 1.873 1.523-.399.307-.541.612-.096.937.42.306.815.716 1.29.865.663.213.804.606.765 1.202-.01.144.029.36.129.43.486.357.81.763 1.078 1.346.234.512.93.823 1.445 1.189.412.29-.195.986.512 1.156.39.093.757.292 1.228.48l-.615.943c-.81-.49-1.572-.997-2.375-1.427-2.25-1.204-4.502-2.405-6.785-3.542-.907-.452-1.89-.754-2.856-1.073-.287-.094-.629-.014-.888-.014-.424.585 1.027 1.157-.342 1.538.377.414.623.68.847.927l-.421.594c.888.586 1.207 1.46 1.441 2.38.037.15.023.374.117.438.74.493.9 1.272 1.04 2.054.116.654.482 1.124.925 1.603 1.238 1.346 2.697 2.379 4.225 3.361 1.025.663 1.908 1.46 2.515 2.638 1.233 2.392 2.864 4.552 4.36 6.791 1.384 2.074 3.466 3.2 5.355 4.61.254.188.645.197 1.16.343-.525.552-.859 1.208-1.343 1.35-.881.257-1.225 1.197-2.038 1.395-.896.22-1.119 1.322-2.05 1.436-.452.965-1.559 1.292-2.084 2.24-.426.766-1.387 1.088-2.18 1.25-1.201.243-2.16.94-3.215 1.424-1.01.464-2.144.845-2.896 1.804-.21.267-.602.39-.89.605-.057.041-.024.204-.04.432l2.184.152-.81 1.118c.087.04.177.106.275.122 1.046.16 2.16-.33 3.158.324.574-.52 1.402-.283 2.025-.693.819-.54 1.748-.714 2.711-.6.174.022.313.301.63.624.558-.04 1.284.068 2.085-.277 1.21-.515 2.598-.54 3.758-1.302.31-.203.918-.187 1.279-.027 1.045.46 2.031.518 3.041-.026 1.193.62 2.469-.469 3.746.276.752.435 1.742-.187 2.592-.4a16.005 16.005 0 0 0 5.008-2.227c2.039-1.375 4.273-2.485 5.97-4.375 1-1.115 2.069-2.18 3.309-3.097 1.645-1.217 3.473-1.967 5.322-2.724.989-.404 1.989-.78 2.965-1.21 2.002-.879 3.986-1.803 5.994-2.667.514-.22 1.088-.321 1.645-.409 1.277-.2 2.548-.267 3.742-.953.633-.364 1.53-.291 2.312-.366.786-.078 1.51-.473 2.34-.352.873.127 1.76.148 2.615.214-.463-1.128-1.609-1.616-2.642-1.733-1.405-.157-2.475-.831-3.467-1.615-1.42-1.123-3.006-1.252-4.65-1.107-.569.048-1.207.394-1.631.796-2.077 1.96-4.694 2.96-7.19 4.185-1.252.614-2.613.872-3.94 1.243a9.73 9.73 0 0 1-2.005.331c-1.81.115-3.576-.015-5.219-.946-.428-.243-.988-.29-1.498-.35-.486-.057-.986-.013-1.598-.013-1.295-1.658-2.674-3.34-3.95-5.093-.788-1.077-1.321-2.347-2.15-3.386-.661-.832-.968-1.815-1.523-2.685-.552-.87-.54-1.954-.97-2.898-.227-.504.013-1.208-.184-1.738-.61-1.643-1.342-3.19-2.496-4.598-1.283-1.565-2.627-3.088-4.166-4.332-2.926-2.356-5.46-5.108-8.25-7.59-1.799-1.597-3.715-3.097-5.682-4.526-1.396-1.018-2.869-1.834-4.377-2.621-.252-.131-.576-.12-1.04-.202l.402 1.697c-.948-.003-1.66-1.112-2.635-.539.049 1.252 1.324 1.667 1.79 2.84l-1.818-.365c.168 1.483 1.465 2.036 2.166 3.19-.554.094-.986.17-1.441.248-.19 1.084.521 1.71 1.203 2.276.636.527 1.384.918 2.307 1.515m-99.529 31.799c-.036 1.145 2.06 1.901.793 3.135 1.669 2.434 3.36 4.817 4.953 7.263.907 1.391 1.807 2.752 2.982 3.957 2.106 2.16 4.071 4.46 6.145 6.655.622.658 1.132 1.493 2.185 1.677.305.051.79.539.765.783-.168 1.644 1.677 2.724 1.193 4.424 1.31 5.624 3.166 10.974 6.754 15.657 1.432 1.872 2.941 3.419 5.059 4.441.63.303 1.065 1.014 1.802 1.752-.726.453-1.233.76-1.731 1.081-1.694 1.097-3.33 2.244-4.877 3.573-3.034 2.608-5.868 5.6-9.78 6.937-2.324.795-4.345 2.087-6.385 3.354-.908.563-1.604 1.476-2.364 2.262-1.046 1.082-.446 2.166.2 3.352.102.019.376.032.623.122.738.265 2.042-.733 2.15.951.995.248 1.923.41 2.932-.193 1.29-.77 2.708-1.327 4.192-2.034.138.396.248.716.375 1.085.03.028.104.16.162.154 1.287-.148 2.613.39 3.875-.34 1.074-.621 2.22-1.124 3.352-1.641 1.821-.833 3.695-1.46 5.74-1.452 4.318.017 8.653.2 12.96-.051 4.052-.236 8.056-1.06 11.767-2.84 2.647-1.27 5.46-2.368 7.78-4.103 2.496-1.867 4.966-3.817 6.841-6.533 2.217-3.212 4.774-6.318 8.244-8.348a37.81 37.81 0 0 1 6.014-2.856c2.004-.735 3.953-1.585 5.945-2.342 2.45-.934 4.635-2.32 6.8-3.769.646-.431 1.495-.829 2.234-.796 1.726.075 3.101-.942 4.695-1.276 1.187-.246 2.181-1.133 3.568-1.142 1.123-.01 2.22-.68 3.36-.854 1.297-.197 2.632-.12 3.941-.258.6-.064 1.174-.36 1.828-.572-.865-1.29-1.758-1.94-3.162-1.726-2.336.355-4.223-.815-6.096-1.957-.463-.282-.894-.619-1.353-.908-1.211-.764-2.24-1.264-3.938-.723-1.496.475-3.123.778-4.664 1.292-1.597.53-3.07 1.283-3.902 2.793-.707 1.278-1.662 2.205-2.975 2.737-1.728.701-3.492 1.31-5.236 1.967-1.752.66-3.643.886-5.344 1.708a.5.5 0 0 1-.277.018c-2.373-.423-4.606.701-6.965.602-2.396-.103-4.832.202-7.187-.12-1.147-.157-2.31-.468-3.352-.479-3.543-3.006-6.074-6.686-8.635-10.324-.908-1.291-1.244-2.988-2.172-4.262-1.013-1.391-1.164-3.012-1.62-4.522-.712-2.35-1.409-4.796-1.163-7.277.195-1.987-.742-3.617-1.486-5.165a17.674 17.674 0 0 0-4.365-5.706c-1.666-1.44-3.127-3.115-4.712-4.655-2.521-2.456-5.323-4.547-8.201-6.58-1.715-1.212-3.336-2.588-5.056-3.823-2.303-1.655-4.502-3.463-6.842-5.06-2.527-1.724-5.233-3.187-7.739-4.935-2.81-1.96-5.675-3.76-8.936-4.876-.664-.229-1.275-.614-2.198-.654.213.282.409.58.647.84.324.348.68.667 1.424 1.39l-4.027-.762 2.623 4.567c-.938.11-1.718.202-2.942.344.838.92 1.382 1.536 1.945 2.132.51.536 1.041 1.049 1.504 1.514-.17.37-.199.603-.324.683-.993.635-1.232 1.144-.658 1.763.975 1.059 2.025 2.048 2.896 2.92l-1.837 1.836c1.005.915 1.727 1.521 2.39 2.188 1.139 1.144 1.123 1.159.217 3.053l4.781 4.106c-1.824 1.513 1.036 1.905.614 3.05.87.678 1.74 1.358 2.613 2.037.223.517-1.276 1.11.135 1.641.668.25 1.178.921 1.84 1.465-.348.152-.458.241-.506.216-3.157-1.657-6.645-2.514-9.811-4.153-1.485-.77-1.754-.658-3.023.59m204.486 27.94c-1.014-1.544-2.432-2.054-3.844-2.582-.668-.25-1.418-.431-1.951-.865-1.561-1.267-3.06-2.617-4.532-3.992-.953-.892-1.994-1.299-3.32-1.353-2.447-.101-4.648.652-6.81 1.622-1.016.453-2.04.92-2.973 1.518-1.768 1.132-3.668 1.992-5.684 2.435-2.043.448-3.95 1.293-5.984 1.788-1.844.45-3.71.598-5.498 1.024-2.375.565-4.692.327-7.026.36-1.463.021-2.896-.53-4.422-.508-2.914.04-5.595.718-8.173 2.072-1.47.77-3.104 1.155-4.563 2.052-3.504 2.148-7.066 2.767-10.32 3.682-3.797 1.066-7.43 2.56-10.434 5.275-1.414 1.28-2.91 2.466-4.37 3.696.542 1.165 1.347 1.686 2.362 2.19-.664 1.23-1.875 1.95-2.707 2.99-.732.915-1.072 1.028-3.082 1.81-1.918.748-3.77 1.677-5.632 2.566-.434.207-.8.564-1.186.867-.975.77-1.666 1.817-2.844 2.439-.77.406-1.168 1.515-1.718 2.29.265.548.505 1.049.728 1.507 1.488.207 2.95.446 4.42.597.644.068 1.234-.055 1.894-.404.473-.247 1.498-.743 1.748-.546 1.227.973 2.762.02 4.036.916 1.238.871 2.548.573 3.95-.48 1.92-1.44 3.796-2.942 6.022-4.68.8.145 1.985.471 3.186.546 1.713.105 3.46.22 5.144-.014 3.416-.476 6.864-.946 9.97-2.642.273-.149.523-.346.964-.643.277 1.1.455 2.035.754 2.93.254.747.558 1.511 1.01 2.146.392.55 1.324.845 1.48 1.402.225.809.588 1.485 1.01 2.167.379.615.852 1.198 1.098 1.863.328.886 1.013 1.45 1.54 2.16.577.78.92 1.712 1.682 2.398.467.421.737 1.058 1.114 1.585.474.665.939 1.341 1.46 1.969.743.89 1.754 1.534 2.21 2.692.171.434.757 1.069 1.064 1.022 1.336-.201 1.369.88 1.768 1.582.388.69.634 1.467 1.058 2.133.35.552.918 1.46 1.299 1.416 1.564-.174 1.773 1.095 2.252 1.925.685 1.192 1.29 2.4 2.377 3.288.527-.526 1.014-1.012 1.416-1.416l2.5 3.57c2.05-.604 2.7 1.177 4.043 2.123.312-.397.615-.785 1.064-1.361l1.79 2.294c.779-.087 1.197-.515 1.275-1.276.3-2.96-.385-5.864-.514-8.802-.941-1.513-1.215-3.273-1.797-4.92-1.51-4.27-2.87-8.595-4.423-12.85-.489-1.338-1.018-2.67-1.541-4-.676-1.725-.792-3.581-1.473-5.31-.54-1.364-1.065-2.65-2.01-3.82-.951-1.172-1.62-2.576-2.4-3.884-.12-.203-.24-.434-.26-.661-.19-2.074-.41-4.147-.492-6.226-.03-.693.091-1.608.521-2.065 1.438-1.519 2.746-3.178 4.621-4.269 1.235-.716 2.613-.94 3.893-1.132 2.267-.34 4.306-1.244 6.427-1.946 1.957-.65 3.856-1.474 5.807-2.144.535-.184 1.168-.108 1.756-.111 1.975-.011 4.03.342 5.904-.086 2.703-.619 5.37-.327 8.05-.41 1.218-.035 2.491-.315 3.671.457.346.224.967.034 1.644.034M110.99 194.974c3.498 0 7.817-.711 12.956-2.133 4.044-1.201 6.45 0 7.217 3.608l3.28 15.252c.435 1.86.353 3.28-.247 4.264-.601.984-1.832 1.915-3.69 2.788C123.51 222.25 114.98 224 104.924 224c-16.839 0-29.22-4.453-37.146-13.365-7.929-8.91-11.89-24.519-11.89-46.823 0-21.975 3.907-37.391 11.726-46.248 7.815-8.855 20.033-13.284 36.654-13.284 8.856 0 17.22 1.696 25.091 5.084 3.388 1.423 4.756 3.773 4.101 7.053l-3.28 15.252c-.767 3.607-3.173 4.811-7.216 3.607-4.702-1.311-8.912-1.967-12.628-1.967-8.093 0-13.612 2.078-16.565 6.23-2.951 4.157-4.427 12.248-4.427 24.273 0 12.247 1.53 20.5 4.592 24.764 3.06 4.264 8.746 6.397 17.055 6.397zm101.68 17.629c-6.78 7.49-16.837 11.234-30.175 11.234-13.34 0-23.37-3.744-30.095-11.234-6.723-7.489-10.086-19.325-10.086-35.506 0-16.073 3.388-27.852 10.168-35.342 6.779-7.488 16.783-11.234 30.013-11.234 13.338 0 23.396 3.746 30.176 11.234 6.777 7.49 10.168 19.27 10.168 35.342 0 16.181-3.39 28.018-10.168 35.506zm-30.175-13.53c3.388 0 5.711-1.584 6.97-4.756 1.256-3.17 1.885-8.91 1.885-17.22s-.63-14.022-1.885-17.139c-1.259-3.115-3.582-4.673-6.97-4.673-3.28 0-5.55 1.558-6.806 4.673-1.258 3.117-1.886 8.831-1.886 17.14 0 8.31.628 14.05 1.886 17.22 1.255 3.171 3.526 4.755 6.806 4.755zm126.115-28.7v46.74c0 3.39-1.75 5.084-5.249 5.084h-20.007c-3.39 0-5.084-1.694-5.084-5.085v-49.035c0-3.715-.41-6.396-1.23-8.035-.82-1.64-2.378-2.461-4.675-2.461-5.467 0-8.199 4.265-8.199 12.792v46.74c0 3.39-1.696 5.084-5.084 5.084h-20.336c-3.39 0-5.084-1.693-5.084-5.084v-79.868c0-3.388 1.694-5.084 5.084-5.084h18.203c3.17 0 5.084 1.37 5.74 4.1l1.149 4.1c5.248-6.56 12.407-9.84 21.483-9.84 9.513 0 16.126 3.665 19.845 10.989 6.339-7.324 14.375-10.989 24.107-10.989 15.962 0 23.945 9.897 23.945 29.684v56.908c0 3.39-1.75 5.084-5.248 5.084h-20.172c-3.501 0-5.248-1.693-5.248-5.084v-49.036c0-3.607-.439-6.257-1.313-7.954-.876-1.693-2.46-2.542-4.756-2.542-5.248 0-7.872 4.264-7.872 12.792zm132.184 0v46.74c0 3.39-1.75 5.084-5.248 5.084h-20.008c-3.39 0-5.084-1.694-5.084-5.085v-49.035c0-3.715-.41-6.396-1.23-8.035-.82-1.64-2.377-2.461-4.674-2.461-5.468 0-8.2 4.265-8.2 12.792v46.74c0 3.39-1.696 5.084-5.084 5.084h-20.335c-3.391 0-5.084-1.693-5.084-5.084v-79.868c0-3.388 1.693-5.084 5.084-5.084h18.203c3.17 0 5.084 1.37 5.74 4.1l1.148 4.1c5.248-6.56 12.408-9.84 21.484-9.84 9.512 0 16.126 3.665 19.844 10.989 6.34-7.324 14.375-10.989 24.108-10.989 15.962 0 23.944 9.897 23.944 29.684v56.908c0 3.39-1.75 5.084-5.248 5.084h-20.172c-3.5 0-5.248-1.693-5.248-5.084v-49.036c0-3.607-.438-6.257-1.312-7.954-.876-1.693-2.46-2.542-4.756-2.542-5.248 0-7.872 4.264-7.872 12.792zm57.072 24.765v-57.893c0-3.389 1.694-5.084 5.084-5.084h20.664c3.387 0 5.084 1.695 5.084 5.084v49.2c0 3.718.436 6.396 1.312 8.036.874 1.64 2.567 2.46 5.084 2.46 5.355 0 8.036-4.1 8.036-12.3v-47.396c0-3.389 1.694-5.084 5.084-5.084h20.664c3.498 0 5.248 1.695 5.248 5.084v79.867c0 3.39-1.75 5.084-5.248 5.084h-18.205c-3.172 0-5.084-1.365-5.74-4.1l-1.146-4.099c-4.485 6.56-11.264 9.84-20.337 9.84-8.638 0-15.062-2.268-19.27-6.807-4.21-4.535-6.314-11.834-6.314-21.892zm165.474-34.114v56.088c0 3.39-1.75 5.084-5.249 5.084h-20.664c-3.39 0-5.084-1.693-5.084-5.084v-48.707c0-3.826-.467-6.56-1.394-8.2-.93-1.64-2.598-2.46-5.002-2.46-5.576 0-8.364 4.32-8.364 12.955v46.412c0 3.39-1.697 5.084-5.084 5.084h-20.664c-3.39 0-5.084-1.693-5.084-5.084v-79.867c0-3.389 1.694-5.084 5.084-5.084h18.203c3.17 0 5.084 1.367 5.74 4.1l1.149 4.1c4.81-6.561 12.025-9.84 21.648-9.84 16.508 0 24.764 10.168 24.764 30.503zm41.326-54.939h30.34c4.044 0 6.503 1.86 7.38 5.576L767.97 215.8c.547 1.97.41 3.527-.41 4.676-.82 1.147-2.16 1.72-4.018 1.72H740.91c-3.5 0-5.576-1.747-6.23-5.247l-2.953-13.448h-23.78l-2.789 13.448c-.875 3.5-3.007 5.247-6.394 5.247h-22.469c-1.861 0-3.197-.573-4.017-1.72-.82-1.149-1.014-2.707-.575-4.676l25.747-104.14c.874-3.716 3.28-5.576 7.216-5.576zm6.888 69.7h16.237l-7.545-37.556h-.657l-8.035 37.556zm95.119 38.705l-.984 3.607c-.656 2.734-2.57 4.1-5.74 4.1h-18.041c-3.39 0-5.084-1.694-5.084-5.085V111.17c0-3.388 1.695-5.084 5.084-5.084h20.664c3.388 0 5.084 1.696 5.084 5.084v27.223c1.748-2.295 4.537-4.181 8.365-5.657a32.956 32.956 0 0 1 11.97-2.214c10.169 0 17.795 3.746 22.88 11.234 5.083 7.49 7.626 19.27 7.626 35.342 0 16.51-2.57 28.427-7.709 35.753-5.14 7.326-12.847 10.987-23.123 10.987-4.046 0-8.119-.93-12.218-2.788s-7.028-4.044-8.774-6.56zm3.198-54.12c-1.586 3.172-2.38 8.746-2.38 16.728s.794 13.585 2.38 16.81c1.584 3.226 4.125 4.837 7.627 4.837 3.386 0 5.82-1.583 7.296-4.756 1.477-3.17 2.215-8.8 2.215-16.891 0-8.09-.738-13.695-2.215-16.81-1.476-3.116-3.91-4.675-7.296-4.675-3.502 0-6.043 1.586-7.627 4.756zm91.427-49.201v9.185c0 3.39-1.697 5.084-5.084 5.084h-21.32c-3.39 0-5.084-1.694-5.084-5.084v-9.184c0-3.388 1.693-5.085 5.084-5.085h21.32c3.387 0 5.084 1.696 5.084 5.084zm-.328 26.076v79.868c0 3.39-1.697 5.084-5.084 5.084h-20.664c-3.39 0-5.084-1.693-5.084-5.084v-79.868c0-3.388 1.693-5.084 5.084-5.084h20.664c3.387 0 5.084 1.696 5.084 5.084zm44.934-26.076v105.943c0 3.39-1.696 5.084-5.084 5.084h-20.664c-3.39 0-5.084-1.693-5.084-5.084V111.17c0-3.388 1.695-5.084 5.084-5.084h20.664c3.388 0 5.084 1.696 5.084 5.084zm45.261 0v9.185c0 3.39-1.695 5.084-5.084 5.084h-21.32c-3.389 0-5.084-1.694-5.084-5.084v-9.184c0-3.388 1.695-5.085 5.084-5.085h21.32c3.39 0 5.084 1.696 5.084 5.084zm-.328 26.076v79.868c0 3.39-1.695 5.084-5.084 5.084H965.09c-3.388 0-5.084-1.693-5.084-5.084v-79.868c0-3.388 1.696-5.084 5.084-5.084h20.664c3.389 0 5.084 1.696 5.084 5.084zm57.071 25.256h-9.84v27.553c0 2.843.435 4.783 1.312 5.82.873 1.041 2.514 1.559 4.92 1.559.217 0 .82-.026 1.803-.082a45.866 45.866 0 0 1 2.133-.081c3.17 0 4.756 1.64 4.756 4.92v14.595c0 2.735-1.477 4.485-4.428 5.247-3.28.875-7.71 1.313-13.285 1.313-9.95 0-17.002-2.076-21.155-6.233-4.156-4.154-6.232-11.48-6.232-21.974V162.5h-4.264c-3.281 0-4.92-1.64-4.92-4.92v-15.25c0-3.281 1.64-4.92 4.92-4.92h4.428v-18.697c0-3.28 1.748-4.919 5.248-4.919h19.352c3.498 0 5.248 1.64 5.248 4.92v18.696h10.004c3.386 0 5.084 1.696 5.084 5.084v14.924c0 3.39-1.698 5.084-5.084 5.084zm91.019-24.436l-18.697 76.588c-2.516 10.168-6.069 17.163-10.66 20.993-4.592 3.825-12.52 5.74-23.78 5.74-8.42 0-14.488-.493-18.203-1.477-3.062-.877-4.594-2.624-4.594-5.248v-13.94c0-3.17 1.584-4.756 4.758-4.756.764 0 2.022.08 3.772.246 1.748.164 3.222.246 4.427.246 4.81 0 6.504-2.35 5.084-7.052l-22.632-71.34c-1.203-3.935 0-5.904 3.609-5.904h21.81c3.499 0 5.577 1.696 6.233 5.084l6.725 33.947 3.443 18.862h.656l2.297-18.862 4.264-33.947c.435-3.388 2.402-5.084 5.904-5.084h21.483c3.609 0 4.974 1.967 4.101 5.904z" fill="#FFF"/></svg>